# xmcd
#
# Track frame offsets: 
#        150
#        12020
#        23590
#        41137
#        58732
#        73325
#        90770
#        106397
#        128462
#        140087
#        156760
#        171190
#        184380
#        198875
#
# Disc length: 2812 seconds
#
# Revision: 0
# Processed by: cddbd v1.5.1PL2 Copyright (c) Steve Scherf et al.
# Submitted via: ExactAudioCopy v0.95b3
#
DISCID=b80afa0e
DTITLE=สามารถ - รวมฮิต หมัดเด็ด
DYEAR=1900
DGENRE=
TTITLE0=อ่อนซ้อม
TTITLE1=อารมณ์ดี
TTITLE2=เปลี่ยนแปลง
TTITLE3=ลังเล
TTITLE4=แก้วตายาใจ
TTITLE5=หย่อนเป็นธรรมดา
TTITLE6=คุณนายใบสีม่วง
TTITLE7=น้ำพริกปลาทู
TTITLE8=ผู้ชายเหน่อ เหน่อ
TTITLE9=เจ็บล้วนๆ
TTITLE10=เกาเอาเอง
TTITLE11=อกหักใครว่าเท่
TTITLE12=สายตาเย็นชา
TTITLE13=อย่าขัดใจ
EXTD=
EXTT0=
EXTT1=
EXTT2=
EXTT3=
EXTT4=
EXTT5=
EXTT6=
EXTT7=
EXTT8=
EXTT9=
EXTT10=
EXTT11=
EXTT12=
EXTT13=
PLAYORDER=
